<svg width="90" height="28" viewBox="0 0 90 28" fill="none" xmlns="http://www.w3.org/2000/svg">
<g clip-path="url(#clip0_230_5)">
<path fill-rule="evenodd" clip-rule="evenodd" d="M7.41482 5.26213C8.90953 4.94181 10.3174 4.97028 11.7429 5.26213C13.6614 5.78534 14.9806 6.81751 15.1721 8.71278L15.2111 19.5701C15.0196 21.4708 13.6153 22.1328 11.7323 22.6738C10.289 22.9692 8.92194 23.0742 7.40418 22.6755C5.51053 22.1577 4.12752 21.0454 3.93603 19.1573L3.95021 8.68787C3.95021 6.77658 5.56195 5.6056 7.41482 5.26035V5.26213ZM12.6259 1.24379C10.5035 0.893209 8.50527 0.930581 6.257 1.29184C4.04951 1.68513 -0.0959666 4.02709 -0.000220003 7.40656L0.021057 20.266C0.409363 23.245 3.09559 25.9073 6.25522 26.4127C8.4769 26.7704 10.5 26.7562 12.6206 26.4608C15.8334 26.0034 19.2342 23.5707 19.2307 20.2677L19.2218 7.41189C19.1828 4.37767 15.9717 2.07487 12.6241 1.24557L12.6259 1.24379Z" fill="#CF102A"/>
<path fill-rule="evenodd" clip-rule="evenodd" d="M22.7627 26.4608V10.4835C24.1528 8.38715 26.6954 8.18606 28.0163 8.07216L32.8178 7.81946V11.5851C31.254 11.6047 29.7504 11.5335 28.066 11.7364C27.4312 11.8681 27.0287 12.1528 26.9152 12.6902V26.4572H22.7627V26.4608Z" fill="#CF102A"/>
<path fill-rule="evenodd" clip-rule="evenodd" d="M43.7279 11.3128C45.2864 11.7007 45.907 12.2649 46.0613 13.6708L46.0932 21.3231C45.9372 22.7325 45.2492 23.0724 43.719 23.4746C42.547 23.6935 41.4353 23.77 40.2012 23.4746C38.6622 23.092 37.992 22.4157 37.8359 21.0152L37.8483 13.6512C37.8483 12.2328 38.8413 11.5655 40.2012 11.2185C41.7385 11.0494 42.5701 11.0939 43.7279 11.311V11.3128ZM44.446 8.1273C42.7208 7.86748 41.0966 7.89595 39.2704 8.16289C37.476 8.45475 34.1071 10.1934 34.1852 12.7009L34.2029 22.2413C34.5185 24.4516 36.7012 26.427 39.2686 26.8007C41.0754 27.0658 42.7172 27.0552 44.4424 26.8363C47.0542 26.4964 49.8167 24.6918 49.8149 22.2413L49.8078 12.7044C49.7759 10.4532 47.1677 8.74482 44.4442 8.12908L44.446 8.1273Z" fill="#CF102A"/>
<path fill-rule="evenodd" clip-rule="evenodd" d="M53.1535 2.9576C53.7263 1.61933 62.5066 1.46985 67.1875 1.24206L67.1166 5.17142C67.1166 5.17142 62.4924 5.23549 60.4356 5.31557C59.6218 5.3476 58.6129 5.191 57.5348 5.90106C56.7139 6.44206 57.0508 6.45629 56.9976 8.00099C56.9444 9.54747 56.9657 12.5799 56.9657 12.5799C58.9959 11.836 61.3736 12.0371 63.6555 11.925V15.7351L58.1749 15.9878C57.5827 16.0145 56.916 16.4025 56.916 17.4098V21.5758C56.8203 22.5884 57.5845 23.3963 58.4338 23.3714C61.6768 23.5049 64.2708 23.0689 67.1893 22.9176V26.9805L53.1553 26.8719V2.9576H53.1535Z" fill="#CF102A"/>
<path fill-rule="evenodd" clip-rule="evenodd" d="M74.3023 12.0781L68.4387 12.0496L75.0115 18.0095L69.2153 26.9894L74.281 26.9253L78.3361 21.1736L83.7582 26.7028L90.0012 26.7313L80.6251 17.2371L86.1997 7.93337C84.7404 9.36595 74.3395 25.5052 73.5736 23.7238L78.3396 15.7031L74.3058 12.0781H74.3023Z" fill="#CF102A"/>
</g>
<defs>
<clipPath id="clip0_230_5">
<rect width="90" height="28" fill="white"/>
</clipPath>
</defs>
</svg>
